<?xml version="1.0" standalone="no"?>
<!DOCTYPE svg PUBLIC "-//W3C//DTD SVG 20010904//EN"
 "http://www.w3.org/TR/2001/REC-SVG-20010904/DTD/svg10.dtd">
<svg version="1.0" xmlns="http://www.w3.org/2000/svg"
 width="308.000000pt" height="308.000000pt" viewBox="0 0 308.000000 308.000000"
 preserveAspectRatio="xMidYMid meet">
<metadata>
Created by potrace 1.14, written by Peter Selinger 2001-2017
</metadata>
<g transform="translate(0.000000,308.000000) scale(0.100000,-0.100000)"
fill="#000000" stroke="none">
<path d="M0 1540 l0 -1540 1540 0 1540 0 0 1540 0 1540 -1540 0 -1540 0 0
-1540z m1955 1420 c481 -72 799 -233 871 -445 25 -74 30 -217 10 -295 -57
-228 -322 -513 -611 -658 -99 -49 -233 -95 -368 -124 -92 -20 -128 -23 -367
-22 -245 0 -275 2 -400 27 -234 46 -389 96 -550 178 -167 86 -256 164 -335
294 -35 58 -91 214 -84 234 2 5 40 -13 84 -41 44 -27 143 -80 220 -118 306
-150 607 -225 950 -237 420 -15 745 72 1062 283 90 60 141 115 175 190 34 74
33 208 -3 284 -37 79 -98 134 -203 185 -473 229 -1239 234 -1660 12 -139 -74
-211 -164 -210 -262 1 -63 23 -105 86 -166 178 -170 620 -250 1018 -183 174
29 292 76 359 143 116 116 4 249 -253 298 -155 29 -266 8 -266 -52 0 -95 -193
-185 -405 -189 -124 -2 -175 32 -175 115 0 233 737 345 1170 178 198 -76 294
-204 242 -320 -74 -166 -371 -279 -817 -310 -646 -45 -1239 189 -1238 490 0
31 7 72 15 91 93 218 510 397 1023 440 170 14 497 4 660 -20z m736 -1750 c-42
-269 -183 -463 -434 -595 -320 -169 -670 -128 -789 91 -24 45 -47 124 -35 124
2 0 24 -11 48 -24 100 -56 268 -77 419 -52 326 53 625 252 755 500 19 37 36
75 37 84 1 9 3 0 5 -21 3 -21 -1 -69 -6 -107z m116 -765 c10 -145 -41 -278
-117 -309 -50 -20 -83 -20 -139 2 -56 21 -60 35 -17 50 87 32 183 161 221 297
9 33 19 67 22 75 9 27 25 -31 30 -115z"/>
</g>
</svg>
